HIERARCHY
ROOT Hips
{
	OFFSET 0.000000 97.167313 0.000000
	CHANNELS 6 Xposition Yposition Zposition Xrotation Yrotation Zrotation
	JOINT Spine
	{
		OFFSET 0.000000 13.784798 0.064400
		CHANNELS 3 Xrotation Yrotation Zrotation
		JOINT Spine1
		{
			OFFSET 0.000000 12.037903 0.404700
			CHANNELS 3 Xrotation Yrotation Zrotation
			JOINT Spine2
			{
				OFFSET 0.000000 17.795601 0.420200
				CHANNELS 3 Xrotation Yrotation Zrotation
				JOINT Neck
				{
					OFFSET 0.000000 39.131302 11.954600
					CHANNELS 3 Xrotation Yrotation Zrotation
					JOINT Head
					{
						OFFSET 0.000000 14.456192 15.627699
						CHANNELS 3 Xrotation Yrotation Zrotation
						JOINT HeadTop_End
						{
							OFFSET 0.000000 15.703506 7.603401
							CHANNELS 3 Xrotation Yrotation Zrotation
							End Site
							{
								OFFSET 0.000000 17.447403 0.000000
							}
						}
					}
				}
				JOINT LeftShoulder
				{
					OFFSET 17.399500 24.608795 1.168800
					CHANNELS 3 Xrotation Yrotation Zrotation
					JOINT LeftArm
					{
						OFFSET 18.980635 5.765305 1.818600
						CHANNELS 3 Xrotation Yrotation Zrotation
						JOINT LeftForeArm
						{
							OFFSET 49.290169 0.000000 0.000000
							CHANNELS 3 Xrotation Yrotation Zrotation
							JOINT LeftHand
							{
								OFFSET 31.562012 0.000000 0.000000
								CHANNELS 3 Xrotation Yrotation Zrotation
								JOINT LeftHandThumb1
								{
									OFFSET 6.133995 -4.388519 7.076070
									CHANNELS 3 Xrotation Yrotation Zrotation
									JOINT LeftHandThumb2
									{
										OFFSET 6.037666 -3.485840 3.485847
										CHANNELS 3 Xrotation Yrotation Zrotation
										JOINT LeftHandThumb3
										{
											OFFSET 6.496506 -3.750763 3.750761
											CHANNELS 3 Xrotation Yrotation Zrotation
											JOINT LeftHandThumb4
											{
												OFFSET 5.616882 -3.242905 3.242910
												CHANNELS 3 Xrotation Yrotation Zrotation
												End Site
												{
													OFFSET -1.254608 7.132141 0.375429
												}
											}
										}
									}
								}
								JOINT LeftHandPinky1
								{
									OFFSET 18.920792 -0.453171 -11.426712
									CHANNELS 3 Xrotation Yrotation Zrotation
									JOINT LeftHandPinky2
									{
										OFFSET 4.919586 0.000000 0.000000
										CHANNELS 3 Xrotation Yrotation Zrotation
										JOINT LeftHandPinky3
										{
											OFFSET 5.233047 0.000000 0.000000
											CHANNELS 3 Xrotation Yrotation Zrotation
											JOINT LeftHandPinky4
											{
												OFFSET 5.571716 0.000000 0.000000
												CHANNELS 3 Xrotation Yrotation Zrotation
												End Site
												{
													OFFSET -3.459808 4.342407 -0.466164
												}
											}
										}
									}
								}
								JOINT LeftHandRing1
								{
									OFFSET 22.726120 -0.094986 -6.500475
									CHANNELS 3 Xrotation Yrotation Zrotation
									JOINT LeftHandRing2
									{
										OFFSET 6.408615 0.000000 0.000000
										CHANNELS 3 Xrotation Yrotation Zrotation
										JOINT LeftHandRing3
										{
											OFFSET 6.150223 0.000000 0.000000
											CHANNELS 3 Xrotation Yrotation Zrotation
											JOINT LeftHandRing4
											{
												OFFSET 6.145386 0.000000 0.000000
												CHANNELS 3 Xrotation Yrotation Zrotation
												End Site
												{
													OFFSET -3.671402 4.923981 -0.202372
												}
											}
										}
									}
								}
								JOINT LeftHandMiddle1
								{
									OFFSET 23.373947 0.000000 0.000001
									CHANNELS 3 Xrotation Yrotation Zrotation
									JOINT LeftHandMiddle2
									{
										OFFSET 6.996567 0.000000 0.000000
										CHANNELS 3 Xrotation Yrotation Zrotation
										JOINT LeftHandMiddle3
										{
											OFFSET 7.015945 0.000000 0.000000
											CHANNELS 3 Xrotation Yrotation Zrotation
											JOINT LeftHandMiddle4
											{
												OFFSET 7.721573 0.000000 0.000000
												CHANNELS 3 Xrotation Yrotation Zrotation
												End Site
												{
													OFFSET -4.651108 6.158463 0.251582
												}
											}
										}
									}
								}
								JOINT LeftHandIndex1
								{
									OFFSET 21.310577 -0.490082 6.209344
									CHANNELS 3 Xrotation Yrotation Zrotation
									JOINT LeftHandIndex2
									{
										OFFSET 7.536453 0.000000 0.000000
										CHANNELS 3 Xrotation Yrotation Zrotation
										JOINT LeftHandIndex3
										{
											OFFSET 7.512344 0.000000 0.000000
											CHANNELS 3 Xrotation Yrotation Zrotation
											JOINT LeftHandIndex4
											{
												OFFSET 10.212402 0.000000 0.000001
												CHANNELS 3 Xrotation Yrotation Zrotation
												End Site
												{
													OFFSET -5.180801 8.690506 1.388433
												}
											}
										}
									}
								}
							}
						}
					}
				}
				JOINT RightShoulder
				{
					OFFSET -17.399500 24.608795 1.168800
					CHANNELS 3 Xrotation Yrotation Zrotation
					JOINT RightArm
					{
						OFFSET -18.980635 5.765305 1.818600
						CHANNELS 3 Xrotation Yrotation Zrotation
						JOINT RightForeArm
						{
							OFFSET -49.290169 0.000000 0.000000
							CHANNELS 3 Xrotation Yrotation Zrotation
							JOINT RightHand
							{
								OFFSET -31.562012 0.000000 0.000000
								CHANNELS 3 Xrotation Yrotation Zrotation
								JOINT RightHandThumb1
								{
									OFFSET -6.133995 -4.388519 7.076070
									CHANNELS 3 Xrotation Yrotation Zrotation
									JOINT RightHandThumb2
									{
										OFFSET -6.037666 -3.485840 3.485847
										CHANNELS 3 Xrotation Yrotation Zrotation
										JOINT RightHandThumb3
										{
											OFFSET -6.496506 -3.750763 3.750761
											CHANNELS 3 Xrotation Yrotation Zrotation
											JOINT RightHandThumb4
											{
												OFFSET -5.616882 -3.242905 3.242910
												CHANNELS 3 Xrotation Yrotation Zrotation
												End Site
												{
													OFFSET 1.254608 7.132141 0.375429
												}
											}
										}
									}
								}
								JOINT RightHandIndex1
								{
									OFFSET -21.310577 -0.490082 6.209344
									CHANNELS 3 Xrotation Yrotation Zrotation
									JOINT RightHandIndex2
									{
										OFFSET -7.536453 0.000000 0.000000
										CHANNELS 3 Xrotation Yrotation Zrotation
										JOINT RightHandIndex3
										{
											OFFSET -7.512344 0.000000 0.000000
											CHANNELS 3 Xrotation Yrotation Zrotation
											JOINT RightHandIndex4
											{
												OFFSET -10.212402 0.000000 0.000001
												CHANNELS 3 Xrotation Yrotation Zrotation
												End Site
												{
													OFFSET 5.180801 8.690506 1.388433
												}
											}
										}
									}
								}
								JOINT RightHandMiddle1
								{
									OFFSET -23.373947 0.000000 0.000001
									CHANNELS 3 Xrotation Yrotation Zrotation
									JOINT RightHandMiddle2
									{
										OFFSET -6.996567 0.000000 0.000000
										CHANNELS 3 Xrotation Yrotation Zrotation
										JOINT RightHandMiddle3
										{
											OFFSET -7.015945 0.000000 0.000000
											CHANNELS 3 Xrotation Yrotation Zrotation
											JOINT RightHandMiddle4
											{
												OFFSET -7.721573 0.000000 0.000000
												CHANNELS 3 Xrotation Yrotation Zrotation
												End Site
												{
													OFFSET 4.651108 6.158463 0.251582
												}
											}
										}
									}
								}
								JOINT RightHandRing1
								{
									OFFSET -22.726120 -0.094986 -6.500475
									CHANNELS 3 Xrotation Yrotation Zrotation
									JOINT RightHandRing2
									{
										OFFSET -6.408615 0.000000 0.000000
										CHANNELS 3 Xrotation Yrotation Zrotation
										JOINT RightHandRing3
										{
											OFFSET -6.150223 0.000000 0.000000
											CHANNELS 3 Xrotation Yrotation Zrotation
											JOINT RightHandRing4
											{
												OFFSET -6.145386 0.000000 0.000000
												CHANNELS 3 Xrotation Yrotation Zrotation
												End Site
												{
													OFFSET 3.671402 4.923981 -0.202372
												}
											}
										}
									}
								}
								JOINT RightHandPinky1
								{
									OFFSET -18.920792 -0.453171 -11.426712
									CHANNELS 3 Xrotation Yrotation Zrotation
									JOINT RightHandPinky2
									{
										OFFSET -4.919586 0.000000 0.000000
										CHANNELS 3 Xrotation Yrotation Zrotation
										JOINT RightHandPinky3
										{
											OFFSET -5.233047 0.000000 0.000000
											CHANNELS 3 Xrotation Yrotation Zrotation
											JOINT RightHandPinky4
											{
												OFFSET -5.571716 0.000000 0.000000
												CHANNELS 3 Xrotation Yrotation Zrotation
												End Site
												{
													OFFSET 3.459808 4.342407 -0.466164
												}
											}
										}
									}
								}
							}
						}
					}
				}
			}
		}
	}
	JOINT LeftUpLeg
	{
		OFFSET 19.899099 -7.885101 -3.429500
		CHANNELS 3 Xrotation Yrotation Zrotation
		JOINT LeftLeg
		{
			OFFSET 1.745560 -36.997807 10.304700
			CHANNELS 3 Xrotation Yrotation Zrotation
			JOINT LeftFoot
			{
				OFFSET -1.745558 -29.803308 -13.615400
				CHANNELS 3 Xrotation Yrotation Zrotation
				JOINT LeftToeBase
				{
					OFFSET 1.181900 -18.539904 15.226099
					CHANNELS 3 Xrotation Yrotation Zrotation
					JOINT LeftToe_End
					{
						OFFSET -0.863701 1.402801 16.534700
						CHANNELS 3 Xrotation Yrotation Zrotation
						End Site
						{
							OFFSET 0.000000 16.616566 0.000000
						}
					}
				}
			}
		}
	}
	JOINT RightUpLeg
	{
		OFFSET -19.899099 -7.885101 -3.429500
		CHANNELS 3 Xrotation Yrotation Zrotation
		JOINT RightLeg
		{
			OFFSET -1.745560 -36.997807 10.304700
			CHANNELS 3 Xrotation Yrotation Zrotation
			JOINT RightFoot
			{
				OFFSET 1.745558 -29.803308 -13.615400
				CHANNELS 3 Xrotation Yrotation Zrotation
				JOINT RightToeBase
				{
					OFFSET -1.181900 -18.539904 15.226099
					CHANNELS 3 Xrotation Yrotation Zrotation
					JOINT RightToe_End
					{
						OFFSET 0.863701 1.402801 16.534700
						CHANNELS 3 Xrotation Yrotation Zrotation
						End Site
						{
							OFFSET 0.000000 16.616566 0.000000
						}
					}
				}
			}
		}
	}
}
MOTION
Frames: 4
Frame Time: 0.033333
-14.906475 87.281769 18.430141 -3.518620 4.257845 9.166764 0.922471 19.777364 3.076560 -1.107156 7.027348 0.432770 -1.054840 7.027148 0.388769 -1.684397 -4.741652 -0.772558 -13.659683 -24.550029 -11.229190 0.000000 -0.000000 -0.000000 -1.473899 -4.155591 -10.161959 -52.642296 -18.330640 -79.259714 -0.000012 -68.817571 -0.000013 -27.038450 -15.364340 -1.600497 4.482911 1.204778 4.300320 20.697469 24.561833 -2.587236 0.368085 8.883341 8.277168 -0.000000 -0.000000 0.000001 6.345727 8.183719 -94.176684 1.594190 4.017921 -43.269696 4.226919 5.621885 -73.857547 -0.000000 0.000004 0.000002 6.040690 8.226271 -96.830765 6.368368 5.828212 -95.081008 7.351789 5.655969 -104.886325 -0.000002 0.000000 0.000005 11.768805 8.320793 -88.935442 6.292153 5.834472 -94.330875 6.495101 5.815626 -96.330427 -0.000002 -0.000005 -0.000001 7.567290 8.842213 -75.024150 6.970188 5.743411 -101.045368 2.873050 5.038771 -59.361201 0.000000 0.000005 -0.000001 5.340005 16.656152 -17.568199 -70.532051 22.173010 90.117680 -0.000046 72.595731 0.000056 24.274060 -19.143625 -17.687663 -6.901948 8.181178 -4.018442 29.817126 -32.677568 4.608299 -5.504767 -5.510971 -14.718506 -0.000001 -0.000006 0.000001 -4.774914 -1.474899 55.945270 4.358186 -4.647586 86.315040 2.028283 -3.845586 55.604246 -0.000001 -0.000003 -0.000001 -2.975218 -2.788136 56.566739 4.607289 -4.656900 89.385381 4.769250 -4.655826 91.380575 0.000000 -0.000001 -0.000007 -4.876529 0.158675 47.834349 3.203245 -4.424866 71.789905 1.573378 -3.491592 48.503957 -0.000000 -0.000002 -0.000003 -1.169839 -3.454726 50.264554 1.243904 -3.170282 42.837963 1.063225 -2.963845 39.462104 -0.000000 0.000001 -0.000001 -22.108173 1.167003 -21.944245 18.762781 -9.775853 3.583396 12.719088 -29.410238 5.608996 -0.077833 -0.000009 0.000003 -0.000000 0.000001 -0.000000 16.788834 -12.115593 -8.798406 26.035226 9.104869 -9.808053 26.967052 6.386382 18.146406 -70.457602 7.280145 -7.359446 0.000000 0.000000 0.000000 
-14.924997 87.254990 18.402435 -3.490958 3.956793 9.233587 1.050161 19.658919 2.993194 -1.056240 6.986198 0.413852 -1.004448 6.986016 0.369510 -1.758932 -4.664271 -0.768918 -13.537839 -24.175229 -11.093421 -0.000001 -0.000001 -0.000000 -1.426723 -4.087154 -10.159119 -52.276215 -18.275846 -79.103959 0.000076 -68.627152 0.000064 -27.011076 -15.686894 -0.951324 4.482907 1.204770 4.300311 20.697459 24.561830 -2.587229 0.368087 8.883341 8.277170 0.000003 -0.000002 -0.000001 6.345740 8.183698 -94.176697 1.594176 4.017914 -43.269692 4.226931 5.621886 -73.857574 -0.000000 0.000000 -0.000002 6.040688 8.226270 -96.830765 6.368380 5.828220 -95.081062 7.351785 5.655977 -104.886311 0.000002 -0.000000 0.000007 11.768796 8.320778 -88.935442 6.292157 5.834463 -94.330882 6.495094 5.815627 -96.330420 -0.000003 0.000000 0.000004 7.567290 8.842203 -75.024150 6.970177 5.743414 -101.045368 2.873059 5.038770 -59.361188 -0.000000 -0.000000 -0.000001 5.332477 17.168473 -17.131190 -70.200261 22.101061 89.990276 0.000062 72.319190 -0.000051 24.507894 -18.705277 -16.638491 -6.901940 8.181165 -4.018437 29.817146 -32.677572 4.608304 -5.504773 -5.510961 -14.718520 0.000001 -0.000001 0.000001 -4.774923 -1.474911 55.945280 4.358196 -4.647589 86.315061 2.028275 -3.845584 55.604252 0.000002 -0.000001 -0.000002 -2.975217 -2.788140 56.566732 4.607268 -4.656903 89.385395 4.769242 -4.655822 91.380561 -0.000002 -0.000000 -0.000007 -4.876531 0.158670 47.834362 3.203252 -4.424872 71.789919 1.573381 -3.491598 48.503946 0.000001 0.000002 0.000000 -1.169844 -3.454731 50.264561 1.243906 -3.170282 42.837973 1.063222 -2.963837 39.462111 0.000000 0.000003 -0.000001 -22.117928 1.220814 -21.945876 18.705310 -9.785965 3.469968 12.773572 -29.388204 5.711425 -0.095887 -0.000010 0.000002 -0.000000 0.000002 0.000000 16.521432 -12.004984 -9.018023 26.348725 9.135456 -9.820797 26.882325 6.415805 17.987047 -70.474773 7.226169 -7.302942 0.000000 0.000000 -0.000000 
-14.936339 87.240219 18.379789 -3.478251 3.680272 9.310949 1.183073 19.537590 2.906633 -1.003835 6.942508 0.394447 -0.953407 6.942187 0.349893 -1.814528 -4.593648 -0.765337 -13.466600 -23.821815 -10.962000 0.000000 0.000000 -0.000001 -1.377800 -4.025702 -10.090070 -51.792645 -18.259252 -78.840594 0.000059 -68.632780 0.000048 -27.110626 -15.984321 -0.213481 4.482907 1.204773 4.300314 20.697468 24.561835 -2.587223 0.368087 8.883340 8.277172 0.000001 0.000001 0.000001 6.345743 8.183728 -94.176684 1.594186 4.017909 -43.269696 4.226923 5.621893 -73.857554 0.000001 -0.000001 -0.000004 6.040692 8.226282 -96.830765 6.368387 5.828228 -95.081103 7.351771 5.655975 -104.886318 0.000001 0.000000 0.000003 11.768798 8.320787 -88.935456 6.292150 5.834474 -94.330875 6.495102 5.815638 -96.330393 -0.000005 -0.000002 0.000004 7.567296 8.842215 -75.024150 6.970183 5.743422 -101.045388 2.873070 5.038776 -59.361195 -0.000000 0.000003 0.000001 5.326045 17.651960 -16.755458 -69.882718 22.011386 89.942103 0.000052 72.135854 -0.000057 24.833074 -18.339302 -15.611693 -6.901939 8.181170 -4.018435 29.817136 -32.677561 4.608301 -5.504773 -5.510951 -14.718515 0.000000 0.000000 0.000001 -4.774920 -1.474919 55.945274 4.358181 -4.647580 86.315068 2.028272 -3.845586 55.604235 0.000001 0.000000 0.000001 -2.975212 -2.788136 56.566725 4.607267 -4.656897 89.385388 4.769248 -4.655817 91.380582 0.000002 -0.000001 -0.000004 -4.876536 0.158669 47.834366 3.203246 -4.424871 71.789899 1.573386 -3.491602 48.503963 -0.000000 0.000000 -0.000007 -1.169841 -3.454737 50.264557 1.243905 -3.170282 42.837963 1.063231 -2.963849 39.462128 -0.000000 0.000000 0.000001 -22.090614 1.267519 -21.954866 18.604368 -9.793679 3.348095 12.850160 -29.368447 5.808747 -0.114249 0.000013 -0.000001 -0.000000 0.000003 0.000000 16.297260 -11.925455 -9.219735 26.613890 9.162614 -9.833495 26.820794 6.403385 17.809049 -70.507196 7.136144 -7.208358 0.000000 0.000000 0.000000 
-14.945798 87.235458 18.360573 -3.466240 3.436658 9.369329 1.300288 19.396692 2.841553 -0.954900 6.890287 0.381046 -0.905647 6.889923 0.335839 -1.854935 -4.528286 -0.765430 -13.554816 -23.477310 -10.868501 0.000001 0.000000 -0.000000 -1.329251 -3.952943 -10.102377 -51.178840 -18.328486 -78.414895 0.000123 -68.844933 0.000095 -27.283752 -16.205935 0.572337 4.482887 1.204760 4.300323 20.697473 24.561830 -2.587246 0.368086 8.883341 8.277164 -0.000001 0.000003 0.000001 6.345736 8.183708 -94.176691 1.594172 4.017910 -43.269696 4.226943 5.621895 -73.857581 0.000002 0.000001 0.000001 6.040681 8.226269 -96.830759 6.368396 5.828215 -95.081178 7.351783 5.655961 -104.886318 -0.000002 0.000004 0.000005 11.768804 8.320769 -88.935456 6.292153 5.834471 -94.330882 6.495106 5.815627 -96.330427 0.000001 -0.000002 0.000008 7.567284 8.842201 -75.024164 6.970184 5.743409 -101.045375 2.873057 5.038771 -59.361195 -0.000000 -0.000002 0.000001 5.318076 18.113646 -16.400261 -69.571282 21.961946 89.962279 -0.000023 72.029973 0.000022 25.216710 -18.036993 -14.633518 -6.901953 8.181170 -4.018444 29.817143 -32.677572 4.608312 -5.504776 -5.510958 -14.718528 0.000002 -0.000005 0.000001 -4.774935 -1.474910 55.945277 4.358187 -4.647589 86.315068 2.028283 -3.845582 55.604232 0.000002 -0.000001 -0.000003 -2.975224 -2.788139 56.566718 4.607274 -4.656905 89.385408 4.769250 -4.655827 91.380589 -0.000001 0.000000 -0.000001 -4.876532 0.158680 47.834342 3.203248 -4.424862 71.789919 1.573389 -3.491595 48.503957 -0.000001 -0.000000 -0.000003 -1.169848 -3.454728 50.264557 1.243893 -3.170286 42.837949 1.063224 -2.963848 39.462111 -0.000003 0.000003 -0.000001 -22.059177 1.317288 -21.944044 18.508698 -9.795421 3.240378 12.916212 -29.355115 5.878226 -0.112508 -0.000006 -0.000001 0.000000 0.000002 -0.000000 16.104828 -11.794252 -9.355102 26.848540 9.186118 -9.846617 26.781682 6.345838 17.657055 -70.523076 7.061716 -7.129121 0.000000 0.000000 0.000000 
